<?xml version="1.0" encoding="utf-8"?>
<!-- Generator: Adobe Illustrator 25.4.1, SVG Export Plug-In . SVG Version: 6.00 Build 0)  -->
<svg version="1.1" id="Layer_1" xmlns="http://www.w3.org/2000/svg" xmlns:xlink="http://www.w3.org/1999/xlink" x="0px" y="0px"
	 viewBox="0 0 348 104" style="enable-background:new 0 0 348 104;" xml:space="preserve">
<style type="text/css">
	.st0{fill:#FFCA06;}
	.st1{fill-rule:evenodd;clip-rule:evenodd;fill:#1A1A1A;}
	.st2{fill:#1A1A1A;}
	.st3{fill:none;stroke:#000000;stroke-width:0.43;stroke-miterlimit:10;}
	.st4{fill:none;stroke:#000000;stroke-width:0.25;stroke-miterlimit:10;}
	.st5{fill:#93671F;}
	.st6{fill:#303030;}
</style>
<g>
	<rect x="8.6" y="29.3" class="st0" width="127.3" height="32"/>
	<path class="st1" d="M27.7,54.7l4.7-8h-3.2l1.6-2.7h7.5l-1.6,2.7h-2.6l-4.7,8.2c13.3-0.3,12.2-20.2-1.1-19L23.6,44h5.8l-1.6,2.7
		h-7.5l6-10.4C16.9,39,18,53.3,27.7,54.7 M29.3,34.3c14.4,0.3,14.3,21.5,0,21.8C14.9,55.9,14.9,34.6,29.3,34.3z"/>
	<path class="st2" d="M118.1,41.4l1.7,8.9c-0.8,1.1-1.9,1.9-3.3,1.3l-0.6,1.7c2.2,0.8,4.6-0.1,5.8-2.1l6.7-9.8h-2.8l-4,6.3l0,0
		l-1-6.3H118.1z M111.5,42.9h1.5c-0.7,2.8-2.1,7.8,2.7,6.5l0.3-1.7c-3.2,1.3-1-3.6-1-4.9h1.9l0.3-1.5h-1.8l0.5-2.3l-2.3,0.7
		l-0.3,1.7h-1.6L111.5,42.9z M106.7,49.3h2.1l2.4-11.7h-2L106.7,49.3z M100.1,47.1c0.1-1.7,2.3-1.5,3.4-1.5
		C103.5,47.3,100.8,49.2,100.1,47.1z M102.9,49.3h1.7c1.1-4.9,2.3-9.9-4.9-7.7l-0.3,1.7c1.3-0.7,4.8-1.3,4.2,1.1
		c-8.7-1.2-6,8.8-0.6,3.7l0,0L102.9,49.3z M91.8,44.5c0.3-2.2,4.1-2.8,3.6,0H91.8z M97.2,46c1.5-3.8-2.9-6.3-5.8-3.8
		c-4.2,3.7-0.5,9.1,4.6,6.9l0.3-1.7c-1.6,0.8-4.8,1.1-4.7-1.4H97.2z M84,40.2c4.5-0.5,3,3.5-0.6,2.9L84,40.2z M79.9,49.3h2.2l1-4.5
		c0.6,0,1.6-0.2,1.8,0.5c0.3,0.9,0.7,3,0.9,3.9h2.3c-0.5-1-0.5-5.4-2.2-5.4l0,0c2.6,0.3,4.4-3.3,2.3-4.9c-1.7-0.9-4.1-0.4-5.9-0.5
		L79.9,49.3z M67.3,40.2h3l-2,9.1h2.3l2-9h3l0.3-1.7h-8.3L67.3,40.2z M63.7,40.8c0,1-1,1.5-1.9,1.7C59.9,40.8,63,38.5,63.7,40.8z
		 M62.8,47.4c-2.8,2-5.7-1.7-1.9-2.9L62.8,47.4z M64.1,49.3h2.3l-1.2-1.8c1.1-1.1,1.7-2.5,1.8-4.1h-1.9c-0.1,0.9-0.4,1.9-1,2.6
		l-1.5-2.2c3-0.5,4.1-4.7,0.7-5.4c-2.8-0.9-5.4,2.3-3.3,4.7c-6.5,2.3-1.2,8.9,3.7,5.6L64.1,49.3z M49.6,49.3H56l0.3-1.7h-4.2l2-9.1
		h-2.2L49.6,49.3z"/>
	<path d="M33.3,67.7V74h-0.9v-4.8L30.3,74h-0.6l-2.1-4.8V74h-0.9v-6.3h0.9L30,73l2.3-5.3H33.3z"/>
	<path d="M38.5,72.6h-2.8L35.2,74h-0.9l2.3-6.3h1l2.3,6.3h-0.8L38.5,72.6z M38.2,71.9l-1.1-3.2L36,71.9H38.2z"/>
	<path d="M44.3,74.1l-1.6-2.6h-1v2.6h-0.9v-6.4h2c0.4,0,0.8,0.1,1.2,0.3c0.3,0.1,0.6,0.4,0.8,0.7c0.2,0.3,0.3,0.6,0.3,1
		s-0.1,0.7-0.3,1c-0.3,0.3-0.7,0.6-1.1,0.7l1.7,2.7L44.3,74.1z M41.7,70.8h1.2c0.4,0,0.7-0.1,1-0.3c0.2-0.2,0.4-0.5,0.3-0.9
		c0-0.3-0.1-0.7-0.3-0.9c-0.3-0.2-0.6-0.3-1-0.3h-1.2V70.8z"/>
	<path d="M49.9,74.1l-2.6-3v3h-0.9v-6.4h0.9v3l2.7-3h1l-3,3.2l3,3.2L49.9,74.1z"/>
	<path d="M52.8,68.3v2.2h2.3v0.7h-2.3v2.2h2.6v0.7h-3.5v-6.4h3.5v0.7L52.8,68.3z"/>
	<path d="M60.7,67.7v0.7H59v5.7h-0.9v-5.8h-1.7v-0.6H60.7z"/>
	<path d="M62.6,67.7v6.4h-0.9v-6.4H62.6z"/>
	<path d="M69.1,74.1h-0.9L64.8,69v5.1h-0.9v-6.4h0.9l3.4,5.1v-5.1h0.9V74.1z"/>
	<path d="M75.3,69.5c-0.2-0.4-0.4-0.7-0.8-0.9c-0.4-0.2-0.8-0.3-1.2-0.3c-0.4,0-0.9,0.1-1.2,0.3c-0.4,0.2-0.7,0.5-0.9,0.9
		c-0.2,0.4-0.4,0.8-0.3,1.3c0,0.5,0.1,0.9,0.3,1.3c0.2,0.4,0.5,0.7,0.9,0.9c0.4,0.2,0.8,0.3,1.2,0.3c0.6,0,1.1-0.2,1.6-0.5
		c0.4-0.4,0.7-0.9,0.7-1.5h-2.5v-0.7h3.5v0.6c0,0.5-0.2,1-0.5,1.5c-0.3,0.4-0.7,0.8-1.1,1c-0.5,0.3-1,0.4-1.6,0.3
		c-0.6,0-1.1-0.1-1.7-0.3c-0.5-0.3-0.9-0.6-1.1-1.1c-0.3-0.5-0.4-1.1-0.4-1.7s0.2-1.1,0.4-1.7c0.3-0.5,0.7-0.9,1.1-1.1
		c0.5-0.3,1.1-0.4,1.7-0.4s1.3,0.2,1.8,0.5s0.9,0.8,1.1,1.4L75.3,69.5L75.3,69.5z"/>
	<path d="M83.8,70.9c-0.5,0.4-1.1,0.6-1.7,0.5h-1.3v2.7h-0.7v-6.4h2c0.6,0,1.2,0.1,1.7,0.5c0.4,0.4,0.6,0.9,0.6,1.4
		C84.3,70,84.1,70.5,83.8,70.9z M83.2,70.3c0.3-0.2,0.4-0.5,0.3-0.9c0-0.8-0.4-1.2-1.4-1.2h-1.3v2.3h1.3
		C82.5,70.7,82.9,70.6,83.2,70.3z"/>
	<path d="M89.2,72.6h-2.8L85.9,74h-0.8l2.3-6.3h1l2.3,6.3h-0.9L89.2,72.6z M88.9,71.9l-1.1-3.2l-1.1,3.2H88.9z"/>
	<path d="M95,74.1l-1.6-2.6h-1v2.6h-0.9v-6.4h2.1c0.4,0,0.8,0.1,1.2,0.3c0.3,0.1,0.6,0.4,0.8,0.7c0.2,0.3,0.3,0.6,0.3,1
		s-0.1,0.8-0.4,1c-0.3,0.3-0.7,0.6-1.1,0.7l1.7,2.7L95,74.1z M92.4,70.8h1.2c0.4,0,0.7-0.1,1-0.3c0.2-0.2,0.4-0.5,0.3-0.9
		c0-0.3-0.1-0.7-0.3-0.9c-0.3-0.2-0.6-0.3-1-0.3h-1.2V70.8z"/>
	<path d="M101.2,67.7v0.7h-1.7v5.7h-0.9v-5.8h-1.7v-0.6H101.2z"/>
	<path d="M107.3,74.1h-0.9L103,69v5.1h-0.9v-6.4h0.9l3.4,5.1v-5.1h0.9V74.1z"/>
	<path d="M109.5,68.3v2.2h2.4v0.7h-2.3v2.2h2.6v0.7h-3.5v-6.4h3.5v0.7L109.5,68.3z"/>
	<path d="M116.7,74.1l-1.6-2.6h-1v2.6h-0.9v-6.4h2.1c0.4,0,0.8,0.1,1.2,0.3c0.3,0.1,0.6,0.4,0.8,0.7c0.2,0.3,0.3,0.6,0.3,1
		s-0.1,0.8-0.3,1.1c-0.3,0.3-0.7,0.6-1.1,0.7l1.7,2.7L116.7,74.1z M114.2,70.8h1.2c0.4,0,0.7-0.1,1-0.3c0.2-0.2,0.4-0.5,0.3-0.9
		c0-0.3-0.1-0.7-0.3-0.9c-0.3-0.2-0.6-0.3-1-0.3h-1.2V70.8z"/>
	<line class="st3" x1="8.6" y1="71.3" x2="22.8" y2="71.3"/>
	<line class="st3" x1="121.8" y1="71.3" x2="135.9" y2="71.3"/>
</g>
<line class="st4" x1="144" y1="14" x2="144" y2="90"/>
<g>
	<g>
		<path class="st5" d="M160.9,71.9v17h-5.8V51.1h9.3c2.8,0,4.8,0.2,6.1,0.5s2.4,0.8,3.4,1.5c1.2,0.9,2.1,2.1,2.8,3.6
			c0.7,1.5,1,3.1,1,4.9c0,1.8-0.3,3.5-1,5c-0.7,1.5-1.6,2.7-2.8,3.6c-1,0.7-2.1,1.2-3.4,1.5c-1.3,0.3-3.3,0.4-6.1,0.4h-1.2H160.9z
			 M161.3,66.9h1.6c3.4,0,5.7-0.4,6.8-1.1c1.1-0.7,1.7-2.1,1.7-3.9c0-2-0.6-3.4-1.8-4.3c-1.2-0.8-3.5-1.2-6.7-1.2h-1.6V66.9z"/>
		<path class="st5" d="M205.5,88.9l-4.3-9.8h-15l-4.4,9.8h-6.5l18.4-39.4L212,88.9H205.5z M188.4,74.1H199l-3.9-8.6
			c-0.2-0.6-0.5-1.2-0.7-1.9c-0.2-0.7-0.5-1.5-0.7-2.4c-0.2,0.8-0.4,1.6-0.7,2.3c-0.2,0.7-0.5,1.4-0.7,2L188.4,74.1z"/>
		<path class="st5" d="M215.5,88.9V49.6l24.1,23.2c0.7,0.7,1.3,1.4,2,2.1s1.4,1.6,2.1,2.5V51.1h5.7v39.4l-24.6-23.6
			c-0.7-0.6-1.3-1.3-1.9-2c-0.6-0.7-1.2-1.5-1.7-2.2v26.4H215.5z"/>
		<path class="st5" d="M270.1,90.4l-16.9-39.4h6.4l8.5,20.2c0.5,1.2,0.9,2.3,1.2,3.2c0.3,1,0.6,1.9,0.8,2.8c0.2-0.9,0.5-1.9,0.9-3
			c0.3-1,0.8-2.1,1.2-3.1l8.5-20.2h6.4L270.1,90.4z"/>
		<path class="st5" d="M290.9,88.9V51.1H312v5.2h-15v9.5h15v5.4h-15v12.2h15v5.5H290.9z"/>
		<path class="st5" d="M319.1,88.9V51.1h6.2v32.4H339v5.5H319.1z"/>
	</g>
	<g>
		<path class="st6" d="M155.9,38.2V14l14.8,14.2c0.4,0.4,0.8,0.8,1.2,1.3c0.4,0.5,0.8,1,1.3,1.5V14.9h3.5v24.1l-15.1-14.4
			c-0.4-0.4-0.8-0.8-1.2-1.2c-0.4-0.4-0.7-0.9-1.1-1.4v16.1H155.9z"/>
		<path class="st6" d="M196.2,31.1h-12c0.1,1.4,0.5,2.5,1.3,3.3c0.7,0.8,1.7,1.2,3,1.2c1.1,0,2-0.2,2.8-0.7c0.7-0.5,1.4-1.2,1.9-2.3
			l2.9,1.6c-0.8,1.5-1.9,2.6-3.1,3.4c-1.2,0.7-2.7,1.1-4.4,1.1c-2.4,0-4.3-0.7-5.8-2.2c-1.4-1.5-2.1-3.4-2.1-5.9
			c0-2.4,0.7-4.3,2.2-5.8c1.5-1.5,3.4-2.3,5.7-2.3c2.4,0,4.3,0.7,5.7,2.1c1.4,1.4,2,3.3,2,5.8V31.1z M192.6,28.8
			c-0.1-1.1-0.6-1.9-1.2-2.5c-0.7-0.6-1.6-0.8-2.8-0.8c-1.1,0-2,0.3-2.7,0.8c-0.7,0.6-1.2,1.4-1.4,2.5H192.6z"/>
		<path class="st6" d="M214.1,39.1l-3.5-7.8c-0.3-0.6-0.5-1.1-0.7-1.6c-0.2-0.5-0.3-0.9-0.5-1.4c-0.2,0.7-0.4,1.3-0.6,1.8
			c-0.2,0.5-0.3,0.9-0.4,1.1l-3.6,7.9l-7.8-15.9h3.7l3.4,7.2c0.1,0.3,0.3,0.7,0.4,1.3s0.2,1.1,0.3,1.8c0-0.4,0.1-0.8,0.2-1.2
			c0.1-0.4,0.3-0.9,0.6-1.5l3.7-8.1h0.3l3.7,8.1c0.2,0.5,0.4,1,0.5,1.4c0.1,0.4,0.2,0.9,0.2,1.3c0.1-0.6,0.2-1.1,0.4-1.6
			c0.1-0.5,0.3-1,0.5-1.4l3.3-7.3h3.6L214.1,39.1z"/>
		<path class="st6" d="M234.2,38.2V14.9h3.8v19.8h8.4v3.4H234.2z"/>
		<path class="st6" d="M263.3,38.2h-3.4v-2c-0.6,0.9-1.3,1.5-2.1,1.9c-0.8,0.4-1.8,0.6-2.8,0.6c-2.1,0-3.8-0.7-5-2.2
			c-1.2-1.5-1.8-3.4-1.8-6c0-2.4,0.6-4.3,1.9-5.8c1.2-1.5,2.9-2.2,4.9-2.2c1.2,0,2.3,0.3,3.1,0.8c0.9,0.5,1.5,1.3,1.9,2.2v-2.5h3.4
			V38.2z M260,30.6c0-1.6-0.4-2.8-1.1-3.6c-0.7-0.9-1.7-1.3-3-1.3c-1.3,0-2.3,0.4-3.1,1.3c-0.7,0.9-1.1,2.1-1.1,3.7
			c0,1.6,0.4,2.8,1.1,3.7c0.7,0.9,1.7,1.3,3,1.3c1.2,0,2.2-0.5,3-1.4C259.6,33.4,260,32.1,260,30.6z"/>
		<path class="st6" d="M271.4,23.1v8.5c0,1.5,0.3,2.5,0.9,3.1c0.6,0.6,1.6,1,2.9,1s2.3-0.3,2.9-1c0.6-0.6,0.9-1.7,0.9-3.1v-8.5h3.4
			v7.4c0,2.9-0.6,5-1.7,6.3c-1.2,1.3-3,2-5.5,2c-2.6,0-4.4-0.6-5.6-1.9c-1.2-1.3-1.7-3.4-1.7-6.3v-7.4H271.4z"/>
		<path class="st6" d="M287.2,38.2v-15h3.2v2.5c0.7-1,1.5-1.8,2.4-2.3c0.9-0.5,2.1-0.7,3.4-0.7c1.1,0,2.1,0.2,2.9,0.5
			c0.8,0.4,1.4,0.9,1.8,1.6c0.3,0.4,0.5,0.9,0.6,1.4c0.1,0.5,0.2,1.5,0.2,2.9v9.1h-3.5v-7.7c0-2-0.2-3.3-0.7-3.9
			c-0.5-0.7-1.3-1-2.6-1c-0.8,0-1.5,0.1-2.1,0.4c-0.6,0.3-1.1,0.7-1.5,1.3c-0.3,0.4-0.4,0.8-0.5,1.4c-0.1,0.6-0.2,1.5-0.2,2.7v6.9
			H287.2z"/>
		<path class="st6" d="M317.5,27.4c-0.5-0.6-1.1-1-1.8-1.3c-0.7-0.3-1.5-0.5-2.3-0.5c-1.4,0-2.5,0.5-3.4,1.4
			c-0.8,0.9-1.3,2.1-1.3,3.6c0,1.6,0.4,2.8,1.3,3.7c0.9,0.9,2,1.3,3.5,1.3c0.8,0,1.6-0.2,2.2-0.5c0.7-0.3,1.2-0.8,1.7-1.4v4
			c-0.6,0.4-1.3,0.6-2,0.8c-0.7,0.2-1.5,0.3-2.3,0.3c-2.4,0-4.3-0.8-5.8-2.3c-1.5-1.5-2.2-3.4-2.2-5.8c0-2.4,0.8-4.4,2.3-5.9
			c1.5-1.5,3.6-2.2,6-2.2c0.8,0,1.5,0.1,2.2,0.2c0.7,0.2,1.3,0.4,1.8,0.7V27.4z"/>
		<path class="st6" d="M321,38.2V13.6h3.2v12c0.7-1,1.5-1.8,2.4-2.3c0.9-0.5,2.1-0.7,3.4-0.7c1.1,0,2.1,0.2,2.9,0.5
			c0.8,0.4,1.4,0.9,1.8,1.6c0.3,0.4,0.5,0.9,0.6,1.4c0.1,0.5,0.2,1.5,0.2,2.9v9.1h-3.5v-7.7c0-2-0.2-3.3-0.7-3.9
			c-0.5-0.7-1.3-1-2.6-1c-0.8,0-1.5,0.1-2.1,0.4c-0.6,0.3-1.1,0.7-1.5,1.3c-0.3,0.4-0.4,0.8-0.5,1.4c-0.1,0.6-0.2,1.5-0.2,2.7v6.9
			H321z"/>
	</g>
</g>
</svg>
